<svg id="facghbag" xmlns="http://www.w3.org/2000/svg" viewBox="0 0 99.27 100"><defs><style>.cls-1{fill:#fff;}</style></defs><title>logo</title><g id="SvgjsG1024"><path class="cls-1" d="M71.57,6.61C74,6,75.5,7.4,76.79,9.85,79,14,81.46,18.07,83.89,22.13A3.8,3.8,0,0,1,84,26.5Q77,38.36,70.18,50.32c-1,1.79-1.52,1.68-2.8,0-2.8-3.59-2.67-6.66-.06-10.41,3.07-4.4,5.41-9.29,8.16-13.91a3,3,0,0,0,0-3.55q-3.78-6.33-7.38-12.75c-1.62-2.89-1.46-3.09,2-3.12Z"/><path class="cls-1" d="M98.15,47.11c1.72,1.77,1.3,3.8-.18,6.14-2.51,4-4.74,8.18-7,12.31a3.85,3.85,0,0,1-3.74,2.28q-13.75-.06-27.52.08c-2.06,0-2.22-.47-1.44-2.42,1.69-4.22,4.42-5.65,9-5.29,5.34.44,10.74,0,16.11,0a3,3,0,0,0,3.05-1.84q3.55-6.45,7.31-12.8c1.68-2.86,1.94-2.82,3.68.13C97.56,46.08,97.74,46.39,98.15,47.11Z"/><path class="cls-1" d="M76.54,90.46c-.65,2.38-2.63,3-5.39,2.93-4.72-.15-9.45,0-14.17.13a3.83,3.83,0,0,1-3.84-2.08Q46.26,79.53,39.21,67.7c-1.06-1.79-.71-2.16,1.36-2.46,4.5-.66,7.11,1,9.08,5.08,2.31,4.84,5.42,9.29,8.07,14A3,3,0,0,0,60.85,86q7.37-.17,14.72-.13c3.32,0,3.41.26,1.75,3.25C77.14,89.42,77,89.75,76.54,90.46Z"/><path class="cls-1" d="M28.22,93.62c-2.39.63-3.94-.75-5.25-3.18-2.24-4.15-4.77-8.16-7.24-12.18a3.82,3.82,0,0,1-.13-4.37Q22.42,62,29.1,49.9c1-1.81,1.5-1.7,2.8-.06,2.84,3.55,2.75,6.63.19,10.41-3,4.43-5.29,9.35-8,14a3.06,3.06,0,0,0,.09,3.56c2.58,4.17,5.07,8.4,7.54,12.66,1.66,2.87,1.5,3.07-1.92,3.14Z"/><path class="cls-1" d="M1.15,53.45c-1.74-1.76-1.34-3.79.11-6.15,2.47-4,4.65-8.22,6.88-12.4a3.81,3.81,0,0,1,3.71-2.31c9.17-.07,18.35-.22,27.52-.4,2.07,0,2.22.44,1.47,2.39-1.64,4.24-4.34,5.7-8.9,5.39-5.34-.37-10.74.13-16.11.14a3.06,3.06,0,0,0-3,1.88Q9.34,48.49,5.65,54.87C4,57.74,3.75,57.7,2,54.79,1.76,54.48,1.57,54.16,1.15,53.45Z"/><path class="cls-1" d="M22.23,9.84c.64-2.39,2.6-3.06,5.36-3,4.72.1,9.45-.13,14.17-.3a3.85,3.85,0,0,1,3.87,2.05q7,11.82,14.21,23.57c1.07,1.77.73,2.15-1.33,2.48-4.49.71-7.13-.89-9.15-5-2.36-4.8-5.52-9.21-8.23-13.85A3.06,3.06,0,0,0,38,14.13c-4.91.19-9.81.28-14.73.31-3.31,0-3.41-.22-1.78-3.22Z"/><path class="cls-1" d="M37.53,20.65c-5.33,0-10.66.23-16,.25a6.88,6.88,0,1,0-.22,7.34,95.81,95.81,0,0,1,10.85,0c3.79.29,5.53-1.62,7.07-4.42C40.61,21.25,40.35,20.64,37.53,20.65ZM15.61,28a3.93,3.93,0,0,1-1-.13,3.63,3.63,0,1,1,1,.13Z"/><path class="cls-1" d="M21.74,45.76c-1.47-2.44-2.15-2.53-3.54-.09-2.87,5-5.55,10.07-8.46,15a2.26,2.26,0,0,1-.16.26,6.89,6.89,0,1,0,7.1,6.88A7,7,0,0,0,16,64.72,111.09,111.09,0,0,1,22,54.11C24.16,51,23.38,48.51,21.74,45.76ZM13.21,69a3.61,3.61,0,1,1-4.84-4.44,3.45,3.45,0,0,1,1.41-.29,3.61,3.61,0,0,1,3.61,3.61A3.8,3.8,0,0,1,13.21,69Z"/><path class="cls-1" d="M69.48,25.23C66.81,20.42,64,15.71,61.3,10.89a6.89,6.89,0,1,0-12.51-4,6.91,6.91,0,0,0,5.59,6.77,107.57,107.57,0,0,1,5.9,10.51c1.57,3.46,4.08,4.07,7.29,4.06C70.44,28.22,70.85,27.69,69.48,25.23ZM59.2,7.72a3.61,3.61,0,0,1-6.89.44,3.72,3.72,0,0,1-.23-1.27,3.61,3.61,0,1,1,7.21,0A2.55,2.55,0,0,1,59.2,7.72Z"/><path class="cls-1" d="M90.1,26.39a6.91,6.91,0,0,0-6.9,6.9,6.61,6.61,0,0,0,.38,2.23h0A120.42,120.42,0,0,1,77.31,46.2c-2.2,3.11-1.46,5.59.15,8.35,1.45,2.47,2.12,2.56,3.55.14,2.85-4.83,5.53-9.75,8.41-14.55a4.86,4.86,0,0,0,.66,0,6.89,6.89,0,1,0,0-13.78ZM91,36.76a3.52,3.52,0,0,1-.92.12,3.61,3.61,0,0,1-3.61-3.61,3.56,3.56,0,0,1,.63-2A3.6,3.6,0,1,1,91,36.76Z"/><path class="cls-1" d="M84.47,69.37A7,7,0,0,0,79,72.05a105.28,105.28,0,0,1-12.18,0c-3.79-.33-5.56,1.55-7.12,4.34-1.4,2.49-1.15,3.11,1.67,3.12,5.66,0,11.32-.12,17,0a6.88,6.88,0,1,0,6.1-10Zm0,10.48A3.58,3.58,0,0,1,82.13,79a3.6,3.6,0,0,1,2.34-6.35h0a3.61,3.61,0,1,1,0,7.21Z"/><path class="cls-1" d="M45.28,86.33a105.68,105.68,0,0,1-6-10.4c-1.62-3.44-4.14-4-7.34-4-2.85,0-3.27.59-1.87,3,2.73,4.77,5.64,9.44,8.34,14.21a6.81,6.81,0,0,0-1.23,3.92,6.9,6.9,0,1,0,8.1-6.78Zm-1.21,10.4a3.61,3.61,0,0,1-3.6-3.61,3.77,3.77,0,0,1,.07-.76,3.61,3.61,0,0,1,6.91-.53h0a3.83,3.83,0,0,1,.23,1.28A3.62,3.62,0,0,1,44.07,96.73Z"/></g></svg>